<svg width="100" height="100" viewBox="0 0 100 100" xmlns="http://www.w3.org/2000/svg">
  <defs>
    <style>
      .monad-frame {
        fill: #9333ea;
        stroke: none;
      }
    </style>
  </defs>
  <!-- Outer rounded diamond frame -->
  <path class="monad-frame" d="M 50 10 
    C 60 10, 70 15, 75 25
    C 80 35, 80 45, 75 55
    C 70 65, 60 70, 50 70
    C 40 70, 30 65, 25 55
    C 20 45, 20 35, 25 25
    C 30 15, 40 10, 50 10
    Z
    M 50 25
    C 45 25, 40 28, 37 32
    C 34 36, 34 40, 37 44
    C 40 48, 45 51, 50 51
    C 55 51, 60 48, 63 44
    C 66 40, 66 36, 63 32
    C 60 28, 55 25, 50 25
    Z" />
</svg>








